<svg xmlns="http://www.w3.org/2000/svg" width="20" height="25" viewBox="0 0 20 25">
	<path d="M6.0396 13.8055C5.66557 13.8055 5.35204 13.6804 5.09901 13.4302C4.84598 13.1799 4.71947 12.8699 4.71947 12.5V4.43864L2.24422 6.88642C2.0022 7.12576 1.69967 7.24543 1.33663 7.24543C0.973597 7.24543 0.660066 7.12576 0.39604 6.88642C0.132013 6.62533 0 6.31527 0 5.95627C0 5.59726 0.132013 5.28721 0.39604 5.02611L5.11551 0.359008C5.24752 0.22846 5.39054 0.135988 5.54455 0.0815927C5.69857 0.0271976 5.86359 0 6.0396 0C6.21562 0 6.38064 0.0271976 6.53465 0.0815927C6.68867 0.135988 6.83168 0.22846 6.9637 0.359008L11.7162 5.05875C11.9802 5.31984 12.1067 5.62446 12.0957 5.97258C12.0847 6.32071 11.9472 6.62533 11.6832 6.88642C11.4191 7.12576 11.1111 7.25087 10.7591 7.26175C10.407 7.27263 10.099 7.14752 9.83498 6.88642L7.35974 4.43864V12.5C7.35974 12.8699 7.23322 13.1799 6.9802 13.4302C6.72717 13.6804 6.41364 13.8055 6.0396 13.8055ZM13.9604 25C13.7844 25 13.6194 24.9728 13.4653 24.9184C13.3113 24.864 13.1683 24.7715 13.0363 24.641L8.28383 19.9413C8.0198 19.6802 7.89329 19.3755 7.90429 19.0274C7.91529 18.6793 8.05281 18.3747 8.31683 18.1136C8.58086 17.8742 8.88889 17.7491 9.24092 17.7383C9.59296 17.7274 9.90099 17.8525 10.165 18.1136L12.6403 20.5614V12.5C12.6403 12.1301 12.7668 11.8201 13.0198 11.5698C13.2728 11.3196 13.5864 11.1945 13.9604 11.1945C14.3344 11.1945 14.648 11.3196 14.901 11.5698C15.154 11.8201 15.2805 12.1301 15.2805 12.5V20.5614L17.7558 18.1136C17.9978 17.8742 18.3003 17.7546 18.6634 17.7546C19.0264 17.7546 19.3399 17.8742 19.604 18.1136C19.868 18.3747 20 18.6847 20 19.0437C20 19.4027 19.868 19.7128 19.604 19.9739L14.8845 24.641C14.7525 24.7715 14.6095 24.864 14.4554 24.9184C14.3014 24.9728 14.1364 25 13.9604 25Z" />
</svg>