<svg xmlns="http://www.w3.org/2000/svg" width="12" height="20" viewBox="0 0 12 20">
	<path d="M4.85587 16.2082L9.29004 9.95811H5.86266L6.48387 4.23724L2.52097 10.9662H5.4985L4.85587 16.2082ZM3.52776 12.9824H0.871545C0.528807 12.9824 0.275324 12.8017 0.111096 12.4405C-0.0531327 12.0793 -0.0352818 11.7307 0.164648 11.3946L6.56956 0.557733C6.71236 0.322514 6.89801 0.1587 7.12651 0.0662925C7.355 -0.0261152 7.59063 -0.0219149 7.8334 0.0788935C8.07617 0.179702 8.25468 0.356116 8.36893 0.608137C8.48317 0.860158 8.52602 1.12898 8.49746 1.4146L7.81198 7.94195H11.1323C11.5035 7.94195 11.7642 8.13516 11.9141 8.52159C12.0641 8.90803 12.0177 9.26926 11.7749 9.60528L4.72734 19.5349C4.57025 19.7533 4.37746 19.8961 4.14897 19.9633C3.92048 20.0305 3.69913 20.0053 3.48492 19.8877C3.27071 19.7701 3.10291 19.5895 2.98152 19.3459C2.86014 19.1023 2.81372 18.8376 2.84229 18.552L3.52776 12.9824Z" />
</svg>