<svg xmlns="http://www.w3.org/2000/svg" width="27" height="27" viewBox="0 0 27 27" fill="none">
	<circle cx="13.5" cy="13.5" r="13" fill="#181E22" />
	<path d="M11.6228 16.473L18.134 9.94966C18.2876 9.79572 18.4669 9.71875 18.6718 9.71875C18.8766 9.71875 19.0559 9.79572 19.2096 9.94966C19.3632 10.1036 19.4401 10.2864 19.4401 10.4981C19.4401 10.7098 19.3632 10.8926 19.2096 11.0465L12.1606 18.1278C12.0069 18.2818 11.8276 18.3587 11.6228 18.3587C11.4179 18.3587 11.2386 18.2818 11.085 18.1278L7.78132 14.8181C7.62767 14.6641 7.55404 14.4813 7.56044 14.2697C7.56685 14.058 7.64687 13.8752 7.80053 13.7212C7.95419 13.5673 8.13666 13.4903 8.34794 13.4903C8.55921 13.4903 8.74168 13.5673 8.89534 13.7212L11.6228 16.473Z" />
</svg>