<svg xmlns="http://www.w3.org/2000/svg" width="15" height="16" viewBox="0 0 15 16">
	<path d="M5.29412 12.8C4.80882 12.8 4.39338 12.6433 4.04779 12.33C3.70221 12.0167 3.52941 11.64 3.52941 11.2V1.6C3.52941 1.16 3.70221 0.783333 4.04779 0.47C4.39338 0.156667 4.80882 0 5.29412 0H13.2353C13.7206 0 14.136 0.156667 14.4816 0.47C14.8272 0.783333 15 1.16 15 1.6V11.2C15 11.64 14.8272 12.0167 14.4816 12.33C14.136 12.6433 13.7206 12.8 13.2353 12.8H5.29412ZM5.29412 11.2H13.2353V1.6H5.29412V11.2ZM1.76471 16C1.27941 16 0.863971 15.8433 0.518382 15.53C0.172794 15.2167 0 14.84 0 14.4V4C0 3.77333 0.0845588 3.58333 0.253676 3.43C0.422794 3.27667 0.632353 3.2 0.882353 3.2C1.13235 3.2 1.34191 3.27667 1.51103 3.43C1.68015 3.58333 1.76471 3.77333 1.76471 4V14.4H10.5882C10.8382 14.4 11.0478 14.4767 11.2169 14.63C11.386 14.7833 11.4706 14.9733 11.4706 15.2C11.4706 15.4267 11.386 15.6167 11.2169 15.77C11.0478 15.9233 10.8382 16 10.5882 16H1.76471Z" />
</svg>