<svg xmlns="http://www.w3.org/2000/svg" width="25" height="23" viewBox="0 0 25 23">
	<path d="M12.4844 16.9474C13.4831 16.9474 14.3727 16.6599 15.1529 16.0849C15.9332 15.5099 16.5002 14.7684 16.8539 13.8605H8.11486C8.46858 14.7684 9.03558 15.5099 9.81586 16.0849C10.5961 16.6599 11.4856 16.9474 12.4844 16.9474ZM9.3633 12.1053C9.88348 12.1053 10.3256 11.9287 10.6898 11.5757C11.0539 11.2226 11.236 10.7939 11.236 10.2895C11.236 9.78509 11.0539 9.35636 10.6898 9.00329C10.3256 8.65022 9.88348 8.47368 9.3633 8.47368C8.84311 8.47368 8.40096 8.65022 8.03683 9.00329C7.6727 9.35636 7.49064 9.78509 7.49064 10.2895C7.49064 10.7939 7.6727 11.2226 8.03683 11.5757C8.40096 11.9287 8.84311 12.1053 9.3633 12.1053ZM15.6055 12.1053C16.1257 12.1053 16.5678 11.9287 16.932 11.5757C17.2961 11.2226 17.4782 10.7939 17.4782 10.2895C17.4782 9.78509 17.2961 9.35636 16.932 9.00329C16.5678 8.65022 16.1257 8.47368 15.6055 8.47368C15.0853 8.47368 14.6432 8.65022 14.279 9.00329C13.9149 9.35636 13.7328 9.78509 13.7328 10.2895C13.7328 10.7939 13.9149 11.2226 14.279 11.5757C14.6432 11.9287 15.0853 12.1053 15.6055 12.1053ZM7.02247 5.32632L10.5181 0.938158C10.7678 0.615351 11.0643 0.378289 11.4076 0.226974C11.7509 0.0756579 12.1099 0 12.4844 0C12.8589 0 13.2179 0.0756579 13.5612 0.226974C13.9045 0.378289 14.201 0.615351 14.4507 0.938158L17.9463 5.32632L23.2522 7.05132C23.7932 7.21272 24.2197 7.51031 24.5318 7.94408C24.8439 8.37785 25 8.85702 25 9.38158C25 9.62368 24.9636 9.86579 24.8908 10.1079C24.8179 10.35 24.6983 10.582 24.5318 10.8039L21.0986 15.525L21.2235 20.4882C21.2443 21.1943 21.005 21.7895 20.5056 22.2737C20.0062 22.7579 19.4236 23 18.7578 23C18.7162 23 18.4873 22.9697 18.0712 22.9092L12.4844 21.3961L6.89763 22.9092C6.79359 22.9496 6.67915 22.9748 6.55431 22.9849C6.42946 22.995 6.31502 23 6.21099 23C5.54515 23 4.96255 22.7579 4.46317 22.2737C3.9638 21.7895 3.72451 21.1943 3.74532 20.4882L3.87016 15.4947L0.468165 10.8039C0.301706 10.582 0.182064 10.35 0.109238 10.1079C0.0364128 9.86579 0 9.62368 0 9.38158C0 8.87719 0.150853 8.40811 0.452559 7.97434C0.754266 7.54057 1.17561 7.23289 1.7166 7.05132L7.02247 5.32632ZM8.55181 7.41447L2.49688 9.35132L6.36704 14.7684L6.2422 20.5487L12.4844 18.8842L18.7266 20.5789L18.6017 14.7684L22.4719 9.41184L16.417 7.41447L12.4844 2.42105L8.55181 7.41447Z" />
</svg>