<svg xmlns="http://www.w3.org/2000/svg" width="22" height="23" viewBox="0 0 22 23">
	<path d="M2.75 20.3714H6.875V13.8C6.875 13.4276 7.00677 13.1155 7.27031 12.8636C7.53385 12.6117 7.86042 12.4857 8.25 12.4857H13.75C14.1396 12.4857 14.4661 12.6117 14.7297 12.8636C14.9932 13.1155 15.125 13.4276 15.125 13.8V20.3714H19.25V8.54286L11 2.62857L2.75 8.54286V20.3714ZM0 20.3714V8.54286C0 8.12667 0.0973958 7.73238 0.292188 7.36C0.486979 6.98762 0.75625 6.68095 1.1 6.44L9.35 0.525714C9.83125 0.175238 10.3813 0 11 0C11.6188 0 12.1688 0.175238 12.65 0.525714L20.9 6.44C21.2438 6.68095 21.513 6.98762 21.7078 7.36C21.9026 7.73238 22 8.12667 22 8.54286V20.3714C22 21.0943 21.7307 21.7131 21.1922 22.2279C20.6536 22.7426 20.0063 23 19.25 23H13.75C13.3604 23 13.0339 22.874 12.7703 22.6221C12.5068 22.3702 12.375 22.0581 12.375 21.6857V15.1143H9.625V21.6857C9.625 22.0581 9.49323 22.3702 9.22969 22.6221C8.96615 22.874 8.63958 23 8.25 23H2.75C1.99375 23 1.34635 22.7426 0.807813 22.2279C0.269271 21.7131 0 21.0943 0 20.3714Z" />
</svg>