<svg width="25" height="23" viewBox="0 0 25 23" fill="none" xmlns="http://www.w3.org/2000/svg">
	<path d="M1.53967 23C1.10853 23 0.744072 22.852 0.446307 22.5561C0.148769 22.26 0 21.8975 0 21.4687V20.0187C0 19.5896 0.148769 19.2271 0.446307 18.9312C0.744072 18.6353 1.10853 18.4873 1.53967 18.4873C1.97082 18.4873 2.3339 18.6353 2.62893 18.9312C2.92373 19.2271 3.07114 19.5896 3.07114 20.0187V21.4768C3.07114 21.9057 2.92373 22.2668 2.62893 22.5602C2.3339 22.8534 1.97082 23 1.53967 23ZM7.01984 23C6.58322 23 6.2174 22.8534 5.92237 22.5602C5.62757 22.2668 5.48016 21.9029 5.48016 21.4687V14.2131C5.48016 13.7789 5.62757 13.4151 5.92237 13.1219C6.2174 12.8285 6.58322 12.6818 7.01984 12.6818C7.45645 12.6818 7.82228 12.8285 8.11731 13.1219C8.41211 13.4151 8.55951 13.7789 8.55951 14.2131V21.4687C8.55951 21.9029 8.41211 22.2668 8.11731 22.5602C7.82228 22.8534 7.45645 23 7.01984 23ZM12.5082 23C12.0771 23 11.7126 22.852 11.4148 22.5561C11.1173 22.26 10.9685 21.8975 10.9685 21.4687V16.9261C10.9685 16.4973 11.1173 16.1349 11.4148 15.839C11.7126 15.5428 12.0771 15.3948 12.5082 15.3948C12.9394 15.3948 13.3024 15.5428 13.5975 15.839C13.8923 16.1349 14.0397 16.4973 14.0397 16.9261V21.4768C14.0397 21.9057 13.8923 22.2668 13.5975 22.5602C13.3024 22.8534 12.9394 23 12.5082 23ZM17.9884 23C17.5572 23 17.1928 22.852 16.895 22.5561C16.5975 22.26 16.4487 21.8975 16.4487 21.4687V14.6981C16.4487 14.2693 16.5975 13.907 16.895 13.6111C17.1928 13.3149 17.5572 13.1668 17.9884 13.1668C18.4195 13.1668 18.7826 13.3149 19.0776 13.6111C19.3724 13.907 19.5198 14.2693 19.5198 14.6981V21.4768C19.5198 21.9057 19.3724 22.2668 19.0776 22.5602C18.7826 22.8534 18.4195 23 17.9884 23ZM23.4685 23C23.0372 23 22.6727 22.852 22.3752 22.5561C22.0776 22.26 21.9289 21.8975 21.9289 21.4687V9.25587C21.9289 8.82706 22.0776 8.4647 22.3752 8.16878C22.6727 7.87262 23.0372 7.72455 23.4685 7.72455C23.8997 7.72455 24.2628 7.87262 24.5578 8.16878C24.8526 8.4647 25 8.82706 25 9.25587V21.4768C25 21.9057 24.8526 22.2668 24.5578 22.5602C24.2628 22.8534 23.8997 23 23.4685 23ZM15.236 10.5906C14.8276 10.5906 14.4349 10.5132 14.0578 10.3583C13.6809 10.2032 13.3366 9.98196 13.025 9.69465L9.76402 6.4514L2.65287 13.524C2.34097 13.8342 1.96968 13.9836 1.53899 13.9723C1.1083 13.9609 0.73974 13.8002 0.43331 13.49C0.144437 13.18 0.00569995 12.8135 0.0170999 12.3906C0.0284998 11.9675 0.178637 11.6123 0.46751 11.325L7.55301 4.27823C7.86468 3.96802 8.20896 3.74114 8.58584 3.5976C8.96295 3.45384 9.35568 3.38195 9.76402 3.38195C10.1724 3.38195 10.5708 3.45384 10.9593 3.5976C11.3476 3.74114 11.6862 3.96802 11.975 4.27823L15.236 7.52115L22.3471 0.448567C22.659 0.138584 23.0303 -0.010738 23.461 0.000600112C23.8917 0.0119382 24.2603 0.172598 24.5667 0.482581C24.8556 0.792564 24.9943 1.15912 24.9829 1.58226C24.9715 2.00517 24.8214 2.36028 24.5325 2.64759L17.447 9.69465C17.1581 9.98196 16.8195 10.2032 16.4313 10.3583C16.0427 10.5132 15.6443 10.5906 15.236 10.5906Z" />
</svg>
