<svg xmlns="http://www.w3.org/2000/svg" width="15" height="14" viewBox="0 0 15 14">
	<path d="M6.27439 0.601399C6.38969 0.417338 6.54985 0.265575 6.73985 0.160383C6.92987 0.0551909 7.14349 0 7.36066 0C7.57785 0 7.79147 0.0551909 7.98147 0.160383C8.17149 0.265575 8.33165 0.417338 8.44694 0.601399C8.44694 0.601399 9.47367 3.83718 9.96025 4.13245C10.4468 4.42773 13.405 4.42773 13.405 4.42773C13.6329 4.45319 13.8496 4.54041 14.0316 4.67993C14.2137 4.81946 14.3542 5.00604 14.4381 5.21953C14.5218 5.43303 14.5458 5.66538 14.5073 5.8915C14.4689 6.11761 14.3695 6.32896 14.2198 6.50272C14.2198 6.50272 11.4557 8.57013 11.4557 9.07985C11.4557 9.58957 12.2131 12.4926 12.2131 12.4926C12.2594 12.73 12.237 12.9758 12.1485 13.2009C12.0599 13.426 11.909 13.6213 11.7134 13.7637C11.5153 13.9034 11.282 13.9846 11.04 13.998C10.798 14.0115 10.557 13.9566 10.3447 13.8397C10.3447 13.8397 8.07098 12.0261 7.35966 12.026C6.64835 12.026 4.14158 13.808 4.14158 13.808C3.92925 13.925 3.68833 13.9798 3.44631 13.9663C3.20429 13.9529 2.97094 13.8718 2.77287 13.732C2.57726 13.5896 2.42634 13.3944 2.33782 13.1693C2.2493 12.9441 2.22689 12.6983 2.27319 12.4609C2.27319 12.4609 2.79253 10.9464 2.92288 10.3436C3.05323 9.74089 8.00203 7.61865 7.93316 7.21919C7.86428 6.81972 2.73924 7.94665 2.29908 7.89353C1.85893 7.84042 0.30546 6.49686 0.30546 6.49686C0.155757 6.32309 0.0563135 6.11175 0.0178484 5.88563C-0.0206167 5.65951 0.00335718 5.42716 0.087185 5.21367C0.171012 5.00017 0.311516 4.81359 0.493544 4.67406C0.675582 4.53454 0.892238 4.44733 1.12017 4.42186C1.12017 4.42186 4.38485 4.32268 4.6704 4.03713C4.95594 3.75159 6.27439 0.601399 6.27439 0.601399Z" />
</svg>