<svg xmlns="http://www.w3.org/2000/svg" width="242" height="242" viewBox="0 0 242 242" fill="none">
	<mask id="mask0_1812_66" style="mask-type:luminance" maskUnits="userSpaceOnUse" x="0" y="0" width="242" height="242">
		<path d="M0.543335 83.6426H8.85334V79.4876C8.85334 78.3856 8.41558 77.3288 7.63637 76.5495C6.85715 75.7703 5.80031 75.3326 4.69834 75.3326C3.59636 75.3326 2.53952 75.7703 1.7603 76.5495C0.98109 77.3288 0.543335 78.3856 0.543335 79.4876" fill="white" />
		<path d="M8.85334 83.6426H0.543335V91.9526H8.85334V83.6426Z" fill="white" />
		<path d="M8.85334 91.9531H0.543335V100.263H8.85334V91.9531Z" fill="white" />
		<path d="M8.85339 108.573L8.85339 100.263H0.543393C0.543393 102.467 1.41891 104.581 2.97734 106.139C4.53576 107.698 6.64944 108.573 8.85339 108.573Z" fill="white" />
		<path d="M0.543335 133.503H8.85334V125.193C6.64939 125.193 4.5357 126.068 2.97727 127.627C1.41884 129.185 0.543335 131.299 0.543335 133.503Z" fill="white" />
		<path d="M8.85334 133.503H0.543335V141.813H8.85334V133.503Z" fill="white" />
		<path d="M8.85339 141.812H0.543393V145.968C0.543393 147.069 0.981155 148.126 1.76037 148.906C2.53958 149.685 3.59642 150.123 4.69839 150.123C5.80037 150.123 6.8572 149.685 7.63642 148.906C8.41563 148.126 8.85339 147.069 8.85339 145.968" fill="white" />
		<path d="M0.543335 166.743H8.85334V158.433C6.64939 158.433 4.5357 159.309 2.97727 160.867C1.41884 162.426 0.543335 164.539 0.543335 166.743Z" fill="white" />
		<path d="M8.85339 166.743H0.543393V170.898C0.543393 172 0.981155 173.057 1.76037 173.836C2.53958 174.615 3.59642 175.053 4.69839 175.053C5.80037 175.053 6.8572 174.615 7.63642 173.836C8.41563 173.057 8.85339 172 8.85339 170.898" fill="white" />
		<path d="M13.0084 75.3334C15.3031 75.3334 17.1634 73.4732 17.1634 71.1784C17.1634 68.8837 15.3031 67.0234 13.0084 67.0234C10.7137 67.0234 8.85339 68.8837 8.85339 71.1784C8.85339 73.4732 10.7137 75.3334 13.0084 75.3334Z" fill="white" />
		<path d="M8.85339 83.6426V91.9526H17.1634C17.1634 89.7486 16.2879 87.6349 14.7295 86.0765C13.171 84.5181 11.0573 83.6426 8.85339 83.6426Z" fill="white" />
		<path d="M17.1634 91.9531H8.85339V100.263H17.1634V91.9531Z" fill="white" />
		<path d="M17.1633 100.263H8.85333V108.573C11.0573 108.573 13.171 107.697 14.7294 106.139C16.2878 104.58 17.1633 102.467 17.1633 100.263Z" fill="white" />
		<path d="M17.1634 125.193H8.85339V133.503H17.1634V125.193Z" fill="white" />
		<path d="M17.1634 133.503H8.85339V141.813H17.1634V133.503Z" fill="white" />
		<path d="M17.1634 158.433H8.85339V166.743H17.1634V158.433Z" fill="white" />
		<path d="M25.4734 83.6426V75.3326H21.3184C20.2164 75.3326 19.1596 75.7703 18.3804 76.5495C17.6011 77.3288 17.1634 78.3856 17.1634 79.4876C17.1634 80.5896 17.6011 81.6464 18.3804 82.4256C19.1596 83.2048 20.2164 83.6426 21.3184 83.6426" fill="white" />
		<path d="M17.1633 116.883H25.4733V112.728C25.4733 111.626 25.0356 110.569 24.2564 109.79C23.4771 109.011 22.4203 108.573 21.3183 108.573C20.2164 108.573 19.1595 109.011 18.3803 109.79C17.6011 110.569 17.1633 111.626 17.1633 112.728" fill="white" />
		<path d="M25.4733 116.883H17.1633V125.193H25.4733V116.883Z" fill="white" />
		<path d="M25.4733 125.193H17.1633V133.503H25.4733V125.193Z" fill="white" />
		<path d="M25.4733 133.503H17.1633V141.813H25.4733V133.503Z" fill="white" />
		<path d="M17.1633 158.433H25.4733V150.123C23.2694 150.123 21.1557 150.998 19.5973 152.557C18.0388 154.115 17.1633 156.229 17.1633 158.433Z" fill="white" />
		<path d="M25.4734 158.433H17.1634V166.743C19.3673 166.743 21.481 165.867 23.0395 164.309C24.5979 162.75 25.4734 160.637 25.4734 158.433Z" fill="white" />
		<path d="M25.4734 75.333H33.7834V67.023C31.5794 67.023 29.4658 67.8985 27.9073 69.457C26.3489 71.0154 25.4734 73.1291 25.4734 75.333Z" fill="white" />
		<path d="M33.7834 75.333H25.4734V83.643H33.7834V75.333Z" fill="white" />
		<path d="M33.7833 83.6426H25.4733V87.7976C25.4733 88.8996 25.9111 89.9564 26.6903 90.7356C27.4695 91.5148 28.5264 91.9526 29.6283 91.9526C30.7303 91.9526 31.7871 91.5148 32.5664 90.7356C33.3456 89.9564 33.7833 88.8996 33.7833 87.7976" fill="white" />
		<path d="M33.7833 108.573V100.263H29.6283C28.5264 100.263 27.4695 100.701 26.6903 101.48C25.9111 102.259 25.4733 103.316 25.4733 104.418C25.4733 105.52 25.9111 106.577 26.6903 107.356C27.4695 108.135 28.5264 108.573 29.6283 108.573" fill="white" />
		<path d="M25.4734 125.193V133.503H33.7834C33.7834 131.299 32.9079 129.186 31.3494 127.627C29.791 126.069 27.6773 125.193 25.4734 125.193Z" fill="white" />
		<path d="M33.7834 133.503H25.4734V141.813H33.7834V133.503Z" fill="white" />
		<path d="M33.7834 141.812H25.4734V150.123H33.7834V141.812Z" fill="white" />
		<path d="M33.7834 150.123H25.4734V158.433H33.7834V150.123Z" fill="white" />
		<path d="M33.7833 67.0234V75.3334H37.9383C39.0403 75.3334 40.0971 74.8957 40.8764 74.1165C41.6556 73.3373 42.0933 72.2804 42.0933 71.1784C42.0933 70.0765 41.6556 69.0196 40.8764 68.2404C40.0971 67.4612 39.0403 67.0234 37.9383 67.0234" fill="white" />
		<path d="M33.7833 100.263H42.0933V96.1077C42.0933 95.0057 41.6556 93.9489 40.8764 93.1697C40.0971 92.3905 39.0403 91.9527 37.9383 91.9527C36.8364 91.9527 35.7795 92.3905 35.0003 93.1697C34.2211 93.9489 33.7833 95.0057 33.7833 96.1077" fill="white" />
		<path d="M42.0933 100.263H33.7833V108.573H42.0933V100.263Z" fill="white" />
		<path d="M42.0933 108.573H33.7833V116.883H42.0933V108.573Z" fill="white" />
		<path d="M42.0934 125.193V116.883H33.7834C33.7834 119.087 34.6589 121.201 36.2173 122.759C37.7758 124.318 39.8894 125.193 42.0934 125.193Z" fill="white" />
		<path d="M33.7833 150.123V158.433H42.0933C42.0933 156.229 41.2178 154.115 39.6594 152.557C38.101 150.999 35.9873 150.123 33.7833 150.123Z" fill="white" />
		<path d="M42.0934 158.433H33.7834V162.588C33.7834 163.69 34.2211 164.746 35.0004 165.526C35.7796 166.305 36.8364 166.743 37.9384 166.743C39.0404 166.743 40.0972 166.305 40.8764 165.526C41.6556 164.746 42.0934 163.69 42.0934 162.588" fill="white" />
		<path d="M50.4034 100.263H42.0934V108.573H50.4034V100.263Z" fill="white" />
		<path d="M50.4034 116.883H42.0934V125.193H50.4034V116.883Z" fill="white" />
		<path d="M50.4033 175.053V166.743H46.2483C45.1463 166.743 44.0895 167.18 43.3103 167.96C42.5311 168.739 42.0933 169.796 42.0933 170.898C42.0933 172 42.5311 173.057 43.3103 173.836C44.0895 174.615 45.1463 175.053 46.2483 175.053" fill="white" />
		<path d="M58.7134 75.333V67.023H54.5584C53.4564 67.023 52.3996 67.4608 51.6203 68.24C50.8411 69.0192 50.4034 70.076 50.4034 71.178C50.4034 72.28 50.8411 73.3368 51.6203 74.116C52.3996 74.8953 53.4564 75.333 54.5584 75.333" fill="white" />
		<path d="M54.5583 91.9526C56.8531 91.9526 58.7133 90.0923 58.7133 87.7976C58.7133 85.5028 56.8531 83.6426 54.5583 83.6426C52.2636 83.6426 50.4033 85.5028 50.4033 87.7976C50.4033 90.0923 52.2636 91.9526 54.5583 91.9526Z" fill="white" />
		<path d="M50.4033 100.263V108.573H54.5583C55.6603 108.573 56.7171 108.135 57.4964 107.356C58.2756 106.577 58.7133 105.52 58.7133 104.418C58.7133 103.316 58.2756 102.259 57.4964 101.48C56.7171 100.7 55.6603 100.263 54.5583 100.263" fill="white" />
		<path d="M50.4033 116.883V125.193H54.5583C55.6603 125.193 56.7171 124.755 57.4964 123.976C58.2756 123.197 58.7133 122.14 58.7133 121.038C58.7133 119.936 58.2756 118.879 57.4964 118.1C56.7171 117.321 55.6603 116.883 54.5583 116.883" fill="white" />
		<path d="M54.5583 141.813C56.8531 141.813 58.7133 139.953 58.7133 137.658C58.7133 135.363 56.8531 133.503 54.5583 133.503C52.2636 133.503 50.4033 135.363 50.4033 137.658C50.4033 139.953 52.2636 141.813 54.5583 141.813Z" fill="white" />
		<path d="M58.7134 158.433V150.123H54.5584C53.4564 150.123 52.3996 150.56 51.6203 151.34C50.8411 152.119 50.4034 153.176 50.4034 154.278C50.4034 155.38 50.8411 156.436 51.6203 157.216C52.3996 157.995 53.4564 158.433 54.5584 158.433" fill="white" />
		<path d="M50.4033 166.743V175.053H54.5583C55.6603 175.053 56.7171 174.615 57.4964 173.836C58.2756 173.057 58.7133 172 58.7133 170.898C58.7133 169.796 58.2756 168.739 57.4964 167.96C56.7171 167.181 55.6603 166.743 54.5583 166.743" fill="white" />
		<path d="M67.0234 67.0234H58.7134V75.3334H67.0234V67.0234Z" fill="white" />
		<path d="M67.0233 83.6426V75.3326H58.7133C58.7133 77.5365 59.5888 79.6502 61.1473 81.2086C62.7057 82.7671 64.8194 83.6426 67.0233 83.6426Z" fill="white" />
		<path d="M67.0233 116.883V108.573H62.8683C61.7663 108.573 60.7095 109.011 59.9303 109.79C59.1511 110.569 58.7133 111.626 58.7133 112.728C58.7133 113.83 59.1511 114.887 59.9303 115.666C60.7095 116.445 61.7663 116.883 62.8683 116.883" fill="white" />
		<path d="M58.7134 150.123H67.0234V145.968C67.0234 144.866 66.5856 143.809 65.8064 143.03C65.0272 142.251 63.9704 141.813 62.8684 141.813C61.7664 141.813 60.7096 142.251 59.9304 143.03C59.1511 143.809 58.7134 144.866 58.7134 145.968" fill="white" />
		<path d="M67.0234 150.123H58.7134V158.433H67.0234V150.123Z" fill="white" />
		<path d="M67.0233 166.743V158.433H58.7133C58.7133 160.637 59.5888 162.751 61.1473 164.309C62.7057 165.868 64.8194 166.743 67.0233 166.743Z" fill="white" />
		<path d="M71.1783 17.1625C73.4731 17.1625 75.3333 15.3023 75.3333 13.0075C75.3333 10.7128 73.4731 8.85254 71.1783 8.85254C68.8836 8.85254 67.0233 10.7128 67.0233 13.0075C67.0233 15.3023 68.8836 17.1625 71.1783 17.1625Z" fill="white" />
		<path d="M67.0233 33.7832H75.3333V29.6282C75.3333 28.5262 74.8956 27.4694 74.1163 26.6902C73.3371 25.911 72.2803 25.4732 71.1783 25.4732C70.0763 25.4732 69.0195 25.911 68.2403 26.6902C67.4611 27.4694 67.0233 28.5262 67.0233 29.6282" fill="white" />
		<path d="M75.3333 33.7832H67.0233V42.0932H75.3333V33.7832Z" fill="white" />
		<path d="M75.3333 42.0928H67.0233V50.4028H75.3333V42.0928Z" fill="white" />
		<path d="M75.3334 50.4033H67.0234V54.5583C67.0234 55.6603 67.4611 56.7171 68.2403 57.4964C69.0196 58.2756 70.0764 58.7133 71.1784 58.7133C72.2803 58.7133 73.3372 58.2756 74.1164 57.4964C74.8956 56.7171 75.3334 55.6603 75.3334 54.5583" fill="white" />
		<path d="M67.0233 67.0234V75.3334H75.3333C75.3333 73.1295 74.4578 71.0158 72.8994 69.4574C71.3409 67.899 69.2273 67.0234 67.0233 67.0234Z" fill="white" />
		<path d="M75.3334 75.333H67.0234V83.643C69.2273 83.643 71.341 82.7675 72.8994 81.2091C74.4579 79.6506 75.3334 77.537 75.3334 75.333Z" fill="white" />
		<path d="M67.0233 108.573H75.3333V100.263C73.1294 100.263 71.0157 101.139 69.4573 102.697C67.8988 104.256 67.0233 106.369 67.0233 108.573Z" fill="white" />
		<path d="M75.3333 108.573H67.0233V116.883H75.3333V108.573Z" fill="white" />
		<path d="M75.3334 116.883H67.0234V121.038C67.0234 122.14 67.4611 123.197 68.2403 123.976C69.0196 124.755 70.0764 125.193 71.1784 125.193C72.2803 125.193 73.3372 124.755 74.1164 123.976C74.8956 123.197 75.3334 122.14 75.3334 121.038" fill="white" />
		<path d="M75.3334 141.812V133.502H71.1784C70.0764 133.502 69.0196 133.94 68.2403 134.719C67.4611 135.499 67.0234 136.556 67.0234 137.657C67.0234 138.759 67.4611 139.816 68.2403 140.596C69.0196 141.375 70.0764 141.812 71.1784 141.812" fill="white" />
		<path d="M67.0233 158.433V166.743H71.1783C72.2803 166.743 73.3371 166.305 74.1163 165.526C74.8956 164.746 75.3333 163.69 75.3333 162.588C75.3333 161.486 74.8956 160.429 74.1163 159.65C73.3371 158.87 72.2803 158.433 71.1783 158.433" fill="white" />
		<path d="M67.0233 183.363H75.3333V175.053C73.1294 175.053 71.0157 175.929 69.4573 177.487C67.8988 179.046 67.0233 181.159 67.0233 183.363Z" fill="white" />
		<path d="M75.3334 183.363H67.0234V187.518C67.0234 188.62 67.4611 189.677 68.2403 190.456C69.0196 191.236 70.0764 191.673 71.1784 191.673C72.2803 191.673 73.3372 191.236 74.1164 190.456C74.8956 189.677 75.3334 188.62 75.3334 187.518" fill="white" />
		<path d="M67.0233 208.293H75.3333V199.983C73.1294 199.983 71.0157 200.858 69.4573 202.417C67.8988 203.975 67.0233 206.089 67.0233 208.293Z" fill="white" />
		<path d="M75.3334 216.603V208.293H67.0234C67.0234 210.496 67.8989 212.61 69.4573 214.169C71.0157 215.727 73.1294 216.603 75.3334 216.603Z" fill="white" />
		<path d="M75.3334 233.223V224.913H71.1784C70.0764 224.913 69.0196 225.35 68.2403 226.13C67.4611 226.909 67.0234 227.966 67.0234 229.068C67.0234 230.17 67.4611 231.226 68.2403 232.006C69.0196 232.785 70.0764 233.223 71.1784 233.223" fill="white" />
		<path d="M79.4884 25.4731C81.7831 25.4731 83.6434 23.6128 83.6434 21.3181C83.6434 19.0233 81.7831 17.1631 79.4884 17.1631C77.1936 17.1631 75.3334 19.0233 75.3334 21.3181C75.3334 23.6128 77.1936 25.4731 79.4884 25.4731Z" fill="white" />
		<path d="M83.6434 33.7832H75.3334V42.0932H83.6434V33.7832Z" fill="white" />
		<path d="M79.4884 67.0229C81.7831 67.0229 83.6434 65.1626 83.6434 62.8679C83.6434 60.5731 81.7831 58.7129 79.4884 58.7129C77.1936 58.7129 75.3334 60.5731 75.3334 62.8679C75.3334 65.1626 77.1936 67.0229 79.4884 67.0229Z" fill="white" />
		<path d="M79.4884 91.9526C81.7831 91.9526 83.6434 90.0923 83.6434 87.7976C83.6434 85.5028 81.7831 83.6426 79.4884 83.6426C77.1936 83.6426 75.3334 85.5028 75.3334 87.7976C75.3334 90.0923 77.1936 91.9526 79.4884 91.9526Z" fill="white" />
		<path d="M75.3334 100.263V108.573H83.6434C83.6434 106.369 82.7679 104.255 81.2094 102.697C79.651 101.138 77.5373 100.263 75.3334 100.263Z" fill="white" />
		<path d="M83.6433 108.573H75.3333V116.883C77.5373 116.883 79.6509 116.008 81.2094 114.449C82.7678 112.891 83.6433 110.777 83.6433 108.573Z" fill="white" />
		<path d="M83.6434 133.503H75.3334V141.813H83.6434V133.503Z" fill="white" />
		<path d="M83.6434 141.812H75.3334V150.123H83.6434V141.812Z" fill="white" />
		<path d="M83.6433 150.123H75.3333V154.278C75.3333 155.38 75.7711 156.437 76.5503 157.216C77.3295 157.995 78.3863 158.433 79.4883 158.433C80.5903 158.433 81.6471 157.995 82.4263 157.216C83.2055 156.437 83.6433 155.38 83.6433 154.278" fill="white" />
		<path d="M83.6434 175.053H75.3334V183.363H83.6434V175.053Z" fill="white" />
		<path d="M75.3334 199.983V208.293H83.6434C83.6434 206.089 82.7679 203.976 81.2094 202.417C79.651 200.859 77.5373 199.983 75.3334 199.983Z" fill="white" />
		<path d="M83.6434 208.293H75.3334V216.603H83.6434V208.293Z" fill="white" />
		<path d="M75.3334 224.913V233.223H79.4884C80.5903 233.223 81.6472 232.785 82.4264 232.006C83.2056 231.227 83.6434 230.17 83.6434 229.068C83.6434 227.966 83.2056 226.909 82.4264 226.13C81.6472 225.351 80.5903 224.913 79.4884 224.913" fill="white" />
		<path d="M83.6433 8.85254H91.9533V0.542538C89.7494 0.542538 87.6357 1.41805 86.0773 2.97648C84.5188 4.53491 83.6433 6.64859 83.6433 8.85254Z" fill="white" />
		<path d="M91.9534 8.85254H83.6434V13.0075C83.6434 14.1095 84.0811 15.1664 84.8603 15.9456C85.6396 16.7248 86.6964 17.1625 87.7984 17.1625C88.9003 17.1625 89.9572 16.7248 90.7364 15.9456C91.5156 15.1664 91.9534 14.1095 91.9534 13.0075" fill="white" />
		<path d="M83.6433 33.7832H91.9533V29.6282C91.9533 28.5262 91.5156 27.4694 90.7363 26.6902C89.9571 25.911 88.9003 25.4732 87.7983 25.4732C86.6963 25.4732 85.6395 25.911 84.8603 26.6902C84.0811 27.4694 83.6433 28.5262 83.6433 29.6282" fill="white" />
		<path d="M91.9533 33.7832H83.6433V42.0932H91.9533V33.7832Z" fill="white" />
		<path d="M91.9533 42.0928H83.6433V50.4028H91.9533V42.0928Z" fill="white" />
		<path d="M91.9534 50.4033H83.6434V54.5583C83.6434 55.6603 84.0811 56.7171 84.8603 57.4964C85.6396 58.2756 86.6964 58.7133 87.7984 58.7133C88.9003 58.7133 89.9572 58.2756 90.7364 57.4964C91.5156 56.7171 91.9534 55.6603 91.9534 54.5583" fill="white" />
		<path d="M87.7983 75.3334C90.0931 75.3334 91.9533 73.4732 91.9533 71.1784C91.9533 68.8837 90.0931 67.0234 87.7983 67.0234C85.5036 67.0234 83.6433 68.8837 83.6433 71.1784C83.6433 73.4732 85.5036 75.3334 87.7983 75.3334Z" fill="white" />
		<path d="M87.7983 100.263C90.0931 100.263 91.9533 98.4029 91.9533 96.1081C91.9533 93.8134 90.0931 91.9531 87.7983 91.9531C85.5036 91.9531 83.6433 93.8134 83.6433 96.1081C83.6433 98.4029 85.5036 100.263 87.7983 100.263Z" fill="white" />
		<path d="M83.6433 125.193H91.9533V116.883C89.7494 116.883 87.6357 117.759 86.0772 119.317C84.5188 120.876 83.6433 122.989 83.6433 125.193Z" fill="white" />
		<path d="M91.9533 125.193H83.6433V133.503H91.9533V125.193Z" fill="white" />
		<path d="M91.9533 133.503H83.6433V141.813H91.9533V133.503Z" fill="white" />
		<path d="M91.9533 141.812H83.6433V150.123H91.9533V141.812Z" fill="white" />
		<path d="M83.6433 166.743H91.9533V158.433C89.7494 158.433 87.6357 159.309 86.0772 160.867C84.5188 162.426 83.6433 164.539 83.6433 166.743Z" fill="white" />
		<path d="M91.9533 166.743H83.6433V175.053H91.9533V166.743Z" fill="white" />
		<path d="M91.9533 175.053H83.6433V183.363H91.9533V175.053Z" fill="white" />
		<path d="M91.9534 183.363H83.6434V187.518C83.6434 188.62 84.0811 189.677 84.8603 190.456C85.6396 191.236 86.6964 191.673 87.7984 191.673C88.9003 191.673 89.9572 191.236 90.7364 190.456C91.5156 189.677 91.9534 188.62 91.9534 187.518" fill="white" />
		<path d="M83.6433 208.293V216.603H91.9533C91.9533 214.399 91.0778 212.285 89.5194 210.727C87.9609 209.168 85.8473 208.293 83.6433 208.293Z" fill="white" />
		<path d="M91.9534 216.603H83.6434V220.758C83.6434 221.86 84.0811 222.916 84.8603 223.696C85.6396 224.475 86.6964 224.913 87.7984 224.913C88.9003 224.913 89.9572 224.475 90.7364 223.696C91.5156 222.916 91.9534 221.86 91.9534 220.758" fill="white" />
		<path d="M91.9534 0.542969V8.85297H96.1084C97.2103 8.85297 98.2672 8.41521 99.0464 7.636C99.8256 6.85678 100.263 5.79994 100.263 4.69797C100.263 3.59599 99.8256 2.53915 99.0464 1.75994C98.2672 0.980727 97.2103 0.542969 96.1084 0.542969" fill="white" />
		<path d="M91.9534 42.0928V50.4028H96.1084C97.2103 50.4028 98.2672 49.965 99.0464 49.1858C99.8256 48.4066 100.263 47.3497 100.263 46.2478C100.263 45.1458 99.8256 44.089 99.0464 43.3097C98.2672 42.5305 97.2103 42.0928 96.1084 42.0928" fill="white" />
		<path d="M96.1084 67.0229C98.4031 67.0229 100.263 65.1626 100.263 62.8679C100.263 60.5731 98.4031 58.7129 96.1084 58.7129C93.8136 58.7129 91.9534 60.5731 91.9534 62.8679C91.9534 65.1626 93.8136 67.0229 96.1084 67.0229Z" fill="white" />
		<path d="M96.1084 83.643C98.4031 83.643 100.263 81.7828 100.263 79.488C100.263 77.1933 98.4031 75.333 96.1084 75.333C93.8136 75.333 91.9534 77.1933 91.9534 79.488C91.9534 81.7828 93.8136 83.643 96.1084 83.643Z" fill="white" />
		<path d="M91.9534 108.573H100.263V100.263C98.0594 100.263 95.9457 101.139 94.3873 102.697C92.8289 104.256 91.9534 106.369 91.9534 108.573Z" fill="white" />
		<path d="M100.263 108.573H91.9534V116.883H100.263V108.573Z" fill="white" />
		<path d="M100.263 116.883H91.9534V125.193H100.263V116.883Z" fill="white" />
		<path d="M100.263 125.193H91.9534V133.503H100.263V125.193Z" fill="white" />
		<path d="M100.263 133.503H91.9534V141.813H100.263V133.503Z" fill="white" />
		<path d="M100.263 141.812H91.9533V150.123C94.1573 150.123 96.2709 149.247 97.8294 147.689C99.3878 146.13 100.263 144.016 100.263 141.812Z" fill="white" />
		<path d="M91.9534 158.433V166.743H100.263C100.263 164.539 99.3879 162.425 97.8294 160.867C96.271 159.308 94.1573 158.433 91.9534 158.433Z" fill="white" />
		<path d="M100.263 166.743H91.9534V175.053H100.263V166.743Z" fill="white" />
		<path d="M91.9534 199.983H100.263V195.828C100.263 194.726 99.8256 193.67 99.0464 192.89C98.2672 192.111 97.2103 191.673 96.1084 191.673C95.0064 191.673 93.9496 192.111 93.1703 192.89C92.3911 193.67 91.9534 194.726 91.9534 195.828" fill="white" />
		<path d="M100.263 199.983H91.9533V204.138C91.9533 205.24 92.3911 206.297 93.1703 207.076C93.9495 207.856 95.0063 208.293 96.1083 208.293C97.2103 208.293 98.2671 207.856 99.0463 207.076C99.8255 206.297 100.263 205.24 100.263 204.138" fill="white" />
		<path d="M96.1084 241.533C98.4031 241.533 100.263 239.672 100.263 237.378C100.263 235.083 98.4031 233.223 96.1084 233.223C93.8136 233.223 91.9534 235.083 91.9534 237.378C91.9534 239.672 93.8136 241.533 96.1084 241.533Z" fill="white" />
		<path d="M100.263 17.1631H108.573V8.85309C106.369 8.85309 104.256 9.72859 102.697 11.287C101.139 12.8454 100.263 14.9591 100.263 17.1631Z" fill="white" />
		<path d="M108.573 25.4727V17.1627H100.263C100.263 19.3666 101.139 21.4803 102.697 23.0387C104.256 24.5971 106.369 25.4727 108.573 25.4727Z" fill="white" />
		<path d="M104.418 58.7133C106.713 58.7133 108.573 56.8531 108.573 54.5583C108.573 52.2636 106.713 50.4033 104.418 50.4033C102.124 50.4033 100.263 52.2636 100.263 54.5583C100.263 56.8531 102.124 58.7133 104.418 58.7133Z" fill="white" />
		<path d="M104.418 91.9526C106.713 91.9526 108.573 90.0923 108.573 87.7976C108.573 85.5028 106.713 83.6426 104.418 83.6426C102.124 83.6426 100.263 85.5028 100.263 87.7976C100.263 90.0923 102.124 91.9526 104.418 91.9526Z" fill="white" />
		<path d="M100.263 100.263V108.573H104.418C105.52 108.573 106.577 108.135 107.356 107.356C108.136 106.577 108.573 105.52 108.573 104.418C108.573 103.316 108.136 102.259 107.356 101.48C106.577 100.7 105.52 100.263 104.418 100.263" fill="white" />
		<path d="M108.573 116.883H100.263V125.193H108.573V116.883Z" fill="white" />
		<path d="M100.263 133.503V141.813H104.418C105.52 141.813 106.577 141.375 107.356 140.596C108.136 139.817 108.573 138.76 108.573 137.658C108.573 136.556 108.136 135.499 107.356 134.72C106.577 133.941 105.52 133.503 104.418 133.503" fill="white" />
		<path d="M100.263 166.743V175.053H108.573C108.573 172.849 107.698 170.736 106.139 169.177C104.581 167.619 102.467 166.743 100.263 166.743Z" fill="white" />
		<path d="M108.573 175.053H100.263V183.363H108.573V175.053Z" fill="white" />
		<path d="M108.573 191.673V183.363H100.263C100.263 185.567 101.139 187.68 102.697 189.239C104.256 190.797 106.369 191.673 108.573 191.673Z" fill="white" />
		<path d="M104.418 216.603C106.713 216.603 108.573 214.743 108.573 212.448C108.573 210.153 106.713 208.293 104.418 208.293C102.124 208.293 100.263 210.153 100.263 212.448C100.263 214.743 102.124 216.603 104.418 216.603Z" fill="white" />
		<path d="M104.418 233.223C106.713 233.223 108.573 231.363 108.573 229.068C108.573 226.773 106.713 224.913 104.418 224.913C102.124 224.913 100.263 226.773 100.263 229.068C100.263 231.363 102.124 233.223 104.418 233.223Z" fill="white" />
		<path d="M108.573 8.85254H116.883V0.542538C114.679 0.542538 112.566 1.41805 111.007 2.97647C109.449 4.5349 108.573 6.64859 108.573 8.85254Z" fill="white" />
		<path d="M116.883 8.85254H108.573V17.1625H116.883V8.85254Z" fill="white" />
		<path d="M116.883 17.1631H108.573V25.4731H116.883V17.1631Z" fill="white" />
		<path d="M116.883 25.4727H108.573V33.7827H116.883V25.4727Z" fill="white" />
		<path d="M116.883 33.7832H108.573V42.0932H116.883V33.7832Z" fill="white" />
		<path d="M116.883 42.0928H108.573V46.2478C108.573 47.3497 109.011 48.4066 109.79 49.1858C110.569 49.965 111.626 50.4028 112.728 50.4028C113.83 50.4028 114.887 49.965 115.666 49.1858C116.446 48.4066 116.883 47.3497 116.883 46.2478" fill="white" />
		<path d="M116.883 100.263V91.9527H112.728C111.626 91.9527 110.569 92.3904 109.79 93.1697C109.011 93.9489 108.573 95.0057 108.573 96.1077C108.573 97.2097 109.011 98.2665 109.79 99.0457C110.569 99.8249 111.626 100.263 112.728 100.263" fill="white" />
		<path d="M108.573 116.883H116.883V108.573C114.679 108.573 112.566 109.448 111.007 111.007C109.449 112.565 108.573 114.679 108.573 116.883Z" fill="white" />
		<path d="M116.883 116.883H108.573V125.193H116.883V116.883Z" fill="white" />
		<path d="M116.883 133.503V125.193H108.573C108.573 127.397 109.449 129.511 111.007 131.069C112.566 132.627 114.679 133.503 116.883 133.503Z" fill="white" />
		<path d="M108.573 183.363V191.673H112.728C113.83 191.673 114.887 191.236 115.666 190.456C116.446 189.677 116.883 188.62 116.883 187.518C116.883 186.416 116.446 185.359 115.666 184.58C114.887 183.801 113.83 183.363 112.728 183.363" fill="white" />
		<path d="M112.728 208.293C115.023 208.293 116.883 206.433 116.883 204.138C116.883 201.844 115.023 199.983 112.728 199.983C110.434 199.983 108.573 201.844 108.573 204.138C108.573 206.433 110.434 208.293 112.728 208.293Z" fill="white" />
		<path d="M112.728 224.913C115.023 224.913 116.883 223.052 116.883 220.758C116.883 218.463 115.023 216.603 112.728 216.603C110.434 216.603 108.573 218.463 108.573 220.758C108.573 223.052 110.434 224.913 112.728 224.913Z" fill="white" />
		<path d="M116.883 241.533V233.223H112.728C111.626 233.223 110.569 233.661 109.79 234.44C109.011 235.219 108.573 236.276 108.573 237.378C108.573 238.48 109.011 239.537 109.79 240.316C110.569 241.095 111.626 241.533 112.728 241.533" fill="white" />
		<path d="M116.883 0.542969V8.85297H125.193C125.193 6.64902 124.318 4.53534 122.759 2.97691C121.201 1.41848 119.087 0.542969 116.883 0.542969Z" fill="white" />
		<path d="M125.193 8.85254H116.883V17.1625H125.193V8.85254Z" fill="white" />
		<path d="M125.193 33.7832H116.883V42.0932H125.193V33.7832Z" fill="white" />
		<path d="M116.883 58.7129H125.193V54.5579C125.193 53.4559 124.756 52.3991 123.976 51.6199C123.197 50.8407 122.14 50.4029 121.038 50.4029C119.936 50.4029 118.879 50.8407 118.1 51.6199C117.321 52.3991 116.883 53.4559 116.883 54.5579" fill="white" />
		<path d="M125.193 58.7129H116.883V67.0229H125.193V58.7129Z" fill="white" />
		<path d="M125.193 75.333V67.023H116.883C116.883 69.227 117.759 71.3406 119.317 72.8991C120.876 74.4575 122.989 75.333 125.193 75.333Z" fill="white" />
		<path d="M125.193 91.9531H116.883V100.263H125.193V91.9531Z" fill="white" />
		<path d="M116.883 108.573V116.883H121.038C122.14 116.883 123.197 116.445 123.976 115.666C124.756 114.887 125.193 113.83 125.193 112.728C125.193 111.626 124.756 110.569 123.976 109.79C123.197 109.011 122.14 108.573 121.038 108.573" fill="white" />
		<path d="M116.883 125.193V133.503H125.193C125.193 131.299 124.318 129.186 122.759 127.627C121.201 126.069 119.087 125.193 116.883 125.193Z" fill="white" />
		<path d="M125.193 133.503H116.883V137.658C116.883 138.76 117.321 139.817 118.1 140.596C118.88 141.375 119.936 141.813 121.038 141.813C122.14 141.813 123.197 141.375 123.976 140.596C124.756 139.817 125.193 138.76 125.193 137.658" fill="white" />
		<path d="M116.883 158.433H125.193V154.278C125.193 153.176 124.756 152.119 123.976 151.34C123.197 150.56 122.14 150.123 121.038 150.123C119.936 150.123 118.879 150.56 118.1 151.34C117.321 152.119 116.883 153.176 116.883 154.278" fill="white" />
		<path d="M125.193 158.433H116.883V166.743H125.193V158.433Z" fill="white" />
		<path d="M125.193 166.743H116.883V175.053H125.193V166.743Z" fill="white" />
		<path d="M125.193 175.053H116.883V179.208C116.883 180.31 117.321 181.367 118.1 182.146C118.88 182.925 119.936 183.363 121.038 183.363C122.14 183.363 123.197 182.925 123.976 182.146C124.756 181.367 125.193 180.31 125.193 179.208" fill="white" />
		<path d="M121.038 199.983C123.333 199.983 125.193 198.123 125.193 195.828C125.193 193.533 123.333 191.673 121.038 191.673C118.744 191.673 116.883 193.533 116.883 195.828C116.883 198.123 118.744 199.983 121.038 199.983Z" fill="white" />
		<path d="M125.193 216.603V208.293H121.038C119.936 208.293 118.88 208.73 118.1 209.51C117.321 210.289 116.883 211.346 116.883 212.448C116.883 213.55 117.321 214.606 118.1 215.386C118.88 216.165 119.936 216.603 121.038 216.603" fill="white" />
		<path d="M116.883 233.223V241.533H121.038C122.14 241.533 123.197 241.095 123.976 240.316C124.756 239.536 125.193 238.48 125.193 237.378C125.193 236.276 124.756 235.219 123.976 234.44C123.197 233.66 122.14 233.223 121.038 233.223" fill="white" />
		<path d="M125.193 8.85254V17.1625H133.503C133.503 14.9586 132.628 12.8449 131.069 11.2865C129.511 9.72806 127.397 8.85254 125.193 8.85254Z" fill="white" />
		<path d="M133.503 25.4727V17.1627H125.193C125.193 19.3666 126.069 21.4803 127.627 23.0387C129.186 24.5971 131.299 25.4727 133.503 25.4727Z" fill="white" />
		<path d="M125.193 33.7832V42.0932H129.348C130.45 42.0932 131.507 41.6554 132.286 40.8762C133.066 40.097 133.503 39.0402 133.503 37.9382C133.503 36.8362 133.066 35.7794 132.286 35.0002C131.507 34.221 130.45 33.7832 129.348 33.7832" fill="white" />
		<path d="M133.503 58.7129H125.193V67.0229H133.503V58.7129Z" fill="white" />
		<path d="M133.503 67.0234H125.193V75.3334H133.503V67.0234Z" fill="white" />
		<path d="M133.503 75.333H125.193V79.488C125.193 80.59 125.631 81.6468 126.41 82.426C127.189 83.2052 128.246 83.643 129.348 83.643C130.45 83.643 131.507 83.2052 132.286 82.426C133.066 81.6468 133.503 80.59 133.503 79.488" fill="white" />
		<path d="M133.503 91.9531H125.193V100.263H133.503V91.9531Z" fill="white" />
		<path d="M133.503 125.193V116.883H129.348C128.246 116.883 127.189 117.321 126.41 118.1C125.631 118.88 125.193 119.936 125.193 121.038C125.193 122.14 125.631 123.197 126.41 123.976C127.189 124.756 128.246 125.193 129.348 125.193" fill="white" />
		<path d="M125.193 158.433V166.743H129.348C130.45 166.743 131.507 166.305 132.286 165.526C133.066 164.746 133.503 163.69 133.503 162.588C133.503 161.486 133.066 160.429 132.286 159.65C131.507 158.87 130.45 158.433 129.348 158.433" fill="white" />
		<path d="M129.348 191.673C131.643 191.673 133.503 189.813 133.503 187.518C133.503 185.224 131.643 183.363 129.348 183.363C127.054 183.363 125.193 185.224 125.193 187.518C125.193 189.813 127.054 191.673 129.348 191.673Z" fill="white" />
		<path d="M125.193 208.293H133.503V204.138C133.503 203.036 133.066 201.979 132.286 201.2C131.507 200.421 130.45 199.983 129.348 199.983C128.246 199.983 127.19 200.421 126.41 201.2C125.631 201.979 125.193 203.036 125.193 204.138" fill="white" />
		<path d="M133.503 208.293H125.193V216.603H133.503V208.293Z" fill="white" />
		<path d="M133.503 216.603H125.193V224.913H133.503V216.603Z" fill="white" />
		<path d="M133.503 224.913H125.193V229.068C125.193 230.17 125.631 231.227 126.41 232.006C127.189 232.785 128.246 233.223 129.348 233.223C130.45 233.223 131.507 232.785 132.286 232.006C133.066 231.227 133.503 230.17 133.503 229.068" fill="white" />
		<path d="M133.503 17.1631V25.4731H137.658C138.76 25.4731 139.817 25.0353 140.596 24.2561C141.376 23.4769 141.813 22.4201 141.813 21.3181C141.813 20.2161 141.376 19.1593 140.596 18.3801C139.817 17.6008 138.76 17.1631 137.658 17.1631" fill="white" />
		<path d="M133.503 50.4033H141.813V42.0933C139.609 42.0933 137.496 42.9688 135.937 44.5273C134.379 46.0857 133.503 48.1994 133.503 50.4033Z" fill="white" />
		<path d="M141.813 50.4033H133.503V58.7133H141.813V50.4033Z" fill="white" />
		<path d="M141.813 58.7129H133.503V67.0229H141.813V58.7129Z" fill="white" />
		<path d="M141.813 67.0234H133.503V75.3334C135.707 75.3334 137.821 74.4579 139.379 72.8995C140.938 71.3411 141.813 69.2274 141.813 67.0234Z" fill="white" />
		<path d="M133.503 91.9531V100.263H141.813C141.813 98.0592 140.938 95.9455 139.379 94.3871C137.821 92.8286 135.707 91.9531 133.503 91.9531Z" fill="white" />
		<path d="M141.813 100.263H133.503V104.418C133.503 105.52 133.941 106.577 134.72 107.356C135.5 108.135 136.556 108.573 137.658 108.573C138.76 108.573 139.817 108.135 140.596 107.356C141.376 106.577 141.813 105.52 141.813 104.418" fill="white" />
		<path d="M133.503 116.883V125.193H141.813C141.813 122.989 140.938 120.875 139.379 119.317C137.821 117.758 135.707 116.883 133.503 116.883Z" fill="white" />
		<path d="M141.813 125.193H133.503V129.348C133.503 130.45 133.941 131.507 134.72 132.286C135.5 133.066 136.556 133.503 137.658 133.503C138.76 133.503 139.817 133.066 140.596 132.286C141.376 131.507 141.813 130.45 141.813 129.348" fill="white" />
		<path d="M133.503 150.123H141.813V141.813C139.609 141.813 137.496 142.689 135.937 144.247C134.379 145.805 133.503 147.919 133.503 150.123Z" fill="white" />
		<path d="M141.813 150.123H133.503V154.278C133.503 155.38 133.941 156.437 134.72 157.216C135.5 157.995 136.556 158.433 137.658 158.433C138.76 158.433 139.817 157.995 140.596 157.216C141.376 156.437 141.813 155.38 141.813 154.278" fill="white" />
		<path d="M137.658 175.053C139.953 175.053 141.813 173.193 141.813 170.898C141.813 168.603 139.953 166.743 137.658 166.743C135.364 166.743 133.503 168.603 133.503 170.898C133.503 173.193 135.364 175.053 137.658 175.053Z" fill="white" />
		<path d="M141.813 208.293H133.503V216.603H141.813V208.293Z" fill="white" />
		<path d="M137.658 241.533C139.953 241.533 141.813 239.672 141.813 237.378C141.813 235.083 139.953 233.223 137.658 233.223C135.364 233.223 133.503 235.083 133.503 237.378C133.503 239.672 135.364 241.533 137.658 241.533Z" fill="white" />
		<path d="M141.813 8.85254H150.123V0.542538C147.919 0.542538 145.806 1.41805 144.247 2.97647C142.689 4.5349 141.813 6.64859 141.813 8.85254Z" fill="white" />
		<path d="M150.123 17.1631V8.85309L141.813 8.85309C141.813 11.057 142.689 13.1707 144.247 14.7291C145.806 16.2876 147.919 17.1631 150.123 17.1631Z" fill="white" />
		<path d="M145.968 33.7827C148.263 33.7827 150.123 31.9224 150.123 29.6277C150.123 27.3329 148.263 25.4727 145.968 25.4727C143.674 25.4727 141.813 27.3329 141.813 29.6277C141.813 31.9224 143.674 33.7827 145.968 33.7827Z" fill="white" />
		<path d="M141.813 42.0928V50.4028H145.968C147.07 50.4028 148.127 49.965 148.906 49.1858C149.686 48.4066 150.123 47.3497 150.123 46.2478C150.123 45.1458 149.686 44.089 148.906 43.3097C148.127 42.5305 147.07 42.0928 145.968 42.0928" fill="white" />
		<path d="M150.123 91.9531V83.6431H145.968C144.866 83.6431 143.809 84.0809 143.03 84.8601C142.251 85.6393 141.813 86.6962 141.813 87.7981C141.813 88.9001 142.251 89.9569 143.03 90.7362C143.809 91.5154 144.866 91.9531 145.968 91.9531" fill="white" />
		<path d="M145.968 116.883C148.263 116.883 150.123 115.023 150.123 112.728C150.123 110.433 148.263 108.573 145.968 108.573C143.674 108.573 141.813 110.433 141.813 112.728C141.813 115.023 143.674 116.883 145.968 116.883Z" fill="white" />
		<path d="M150.123 141.812H141.813V150.123H150.123V141.812Z" fill="white" />
		<path d="M145.968 183.363C148.263 183.363 150.123 181.502 150.123 179.208C150.123 176.913 148.263 175.053 145.968 175.053C143.674 175.053 141.813 176.913 141.813 179.208C141.813 181.502 143.674 183.363 145.968 183.363Z" fill="white" />
		<path d="M141.813 199.983H150.123V191.673C147.919 191.673 145.806 192.549 144.247 194.107C142.689 195.666 141.813 197.779 141.813 199.983Z" fill="white" />
		<path d="M150.123 199.983H141.813V208.293H150.123V199.983Z" fill="white" />
		<path d="M150.123 208.293H141.813V216.603H150.123V208.293Z" fill="white" />
		<path d="M150.123 216.603H141.813V220.758C141.813 221.86 142.251 222.916 143.03 223.696C143.809 224.475 144.866 224.913 145.968 224.913C147.07 224.913 148.127 224.475 148.906 223.696C149.686 222.916 150.123 221.86 150.123 220.758" fill="white" />
		<path d="M158.433 0.542969H150.123V8.85297H158.433V0.542969Z" fill="white" />
		<path d="M158.433 8.85254H150.123V17.1625H158.433V8.85254Z" fill="white" />
		<path d="M158.433 17.1631H150.123V21.3181C150.123 22.4201 150.561 23.4769 151.34 24.2561C152.12 25.0353 153.176 25.4731 154.278 25.4731C155.38 25.4731 156.437 25.0353 157.216 24.2561C157.996 23.4769 158.433 22.4201 158.433 21.3181" fill="white" />
		<path d="M154.278 58.7133C156.573 58.7133 158.433 56.8531 158.433 54.5583C158.433 52.2636 156.573 50.4033 154.278 50.4033C151.984 50.4033 150.123 52.2636 150.123 54.5583C150.123 56.8531 151.984 58.7133 154.278 58.7133Z" fill="white" />
		<path d="M158.433 83.6426H150.123V91.9526H158.433V83.6426Z" fill="white" />
		<path d="M158.433 91.9531H150.123V96.1081C150.123 97.2101 150.561 98.2669 151.34 99.0462C152.12 99.8254 153.176 100.263 154.278 100.263C155.38 100.263 156.437 99.8254 157.216 99.0462C157.996 98.2669 158.433 97.2101 158.433 96.1081" fill="white" />
		<path d="M150.123 141.812H158.433V133.502C156.229 133.502 154.116 134.378 152.557 135.936C150.999 137.495 150.123 139.609 150.123 141.812Z" fill="white" />
		<path d="M158.433 141.812H150.123V150.123H158.433V141.812Z" fill="white" />
		<path d="M158.433 150.123H150.123V158.433H158.433V150.123Z" fill="white" />
		<path d="M158.433 166.743V158.433H150.123C150.123 160.637 150.999 162.751 152.557 164.309C154.116 165.868 156.229 166.743 158.433 166.743Z" fill="white" />
		<path d="M158.433 191.673H150.123V199.983H158.433V191.673Z" fill="white" />
		<path d="M158.433 199.983H150.123V208.293C152.327 208.293 154.441 207.418 155.999 205.859C157.558 204.301 158.433 202.187 158.433 199.983Z" fill="white" />
		<path d="M154.278 241.533C156.573 241.533 158.433 239.672 158.433 237.378C158.433 235.083 156.573 233.223 154.278 233.223C151.984 233.223 150.123 235.083 150.123 237.378C150.123 239.672 151.984 241.533 154.278 241.533Z" fill="white" />
		<path d="M166.743 0.542969H158.433V8.85297H166.743V0.542969Z" fill="white" />
		<path d="M166.743 8.85254H158.433V17.1625H166.743V8.85254Z" fill="white" />
		<path d="M166.743 42.0928V33.7828H162.588C161.486 33.7828 160.43 34.2205 159.65 34.9997C158.871 35.779 158.433 36.8358 158.433 37.9378C158.433 39.0397 158.871 40.0966 159.65 40.8758C160.43 41.655 161.486 42.0928 162.588 42.0928" fill="white" />
		<path d="M166.743 67.0234V58.7134H162.588C161.486 58.7134 160.43 59.1512 159.65 59.9304C158.871 60.7096 158.433 61.7665 158.433 62.8684C158.433 63.9704 158.871 65.0273 159.65 65.8065C160.43 66.5857 161.486 67.0234 162.588 67.0234" fill="white" />
		<path d="M158.433 83.6426H166.743V79.4876C166.743 78.3856 166.306 77.3288 165.526 76.5496C164.747 75.7703 163.69 75.3326 162.588 75.3326C161.486 75.3326 160.43 75.7703 159.65 76.5496C158.871 77.3288 158.433 78.3856 158.433 79.4876" fill="white" />
		<path d="M166.743 83.6426H158.433V91.9526C160.637 91.9526 162.751 91.0771 164.309 89.5186C165.868 87.9602 166.743 85.8465 166.743 83.6426Z" fill="white" />
		<path d="M158.433 125.193H166.743V116.883C164.539 116.883 162.426 117.759 160.867 119.317C159.309 120.876 158.433 122.989 158.433 125.193Z" fill="white" />
		<path d="M166.743 125.193H158.433V133.503H166.743V125.193Z" fill="white" />
		<path d="M166.743 133.503H158.433V141.813H166.743V133.503Z" fill="white" />
		<path d="M166.743 158.433H158.433V166.743H166.743V158.433Z" fill="white" />
		<path d="M158.433 183.363H166.743V175.053C164.539 175.053 162.426 175.929 160.867 177.487C159.309 179.046 158.433 181.159 158.433 183.363Z" fill="white" />
		<path d="M166.743 183.363H158.433V191.673H166.743V183.363Z" fill="white" />
		<path d="M166.743 191.673H158.433V199.983H166.743V191.673Z" fill="white" />
		<path d="M158.433 216.603H166.743V212.448C166.743 211.346 166.306 210.289 165.526 209.51C164.747 208.73 163.69 208.293 162.588 208.293C161.486 208.293 160.43 208.73 159.65 209.51C158.871 210.289 158.433 211.346 158.433 212.448" fill="white" />
		<path d="M166.743 216.603H158.433V224.913H166.743V216.603Z" fill="white" />
		<path d="M166.743 233.223V224.913H158.433C158.433 227.117 159.309 229.23 160.867 230.789C162.426 232.347 164.539 233.223 166.743 233.223Z" fill="white" />
		<path d="M166.743 0.542969V8.85297H175.053C175.053 6.64902 174.178 4.53534 172.619 2.97691C171.061 1.41848 168.947 0.542969 166.743 0.542969Z" fill="white" />
		<path d="M175.053 8.85254H166.743V17.1625H175.053V8.85254Z" fill="white" />
		<path d="M175.053 17.1631H166.743V21.3181C166.743 22.4201 167.181 23.4769 167.96 24.2561C168.74 25.0353 169.796 25.4731 170.898 25.4731C172 25.4731 173.057 25.0353 173.836 24.2561C174.616 23.4769 175.053 22.4201 175.053 21.3181" fill="white" />
		<path d="M166.743 33.7832V42.0932H175.053C175.053 39.8893 174.178 37.7756 172.619 36.2171C171.061 34.6587 168.947 33.7832 166.743 33.7832Z" fill="white" />
		<path d="M175.053 42.0928H166.743V50.4028H175.053V42.0928Z" fill="white" />
		<path d="M175.053 50.4033H166.743V58.7133H175.053V50.4033Z" fill="white" />
		<path d="M175.053 58.7129H166.743V67.0229H175.053V58.7129Z" fill="white" />
		<path d="M175.053 75.333V67.023H166.743C166.743 69.227 167.619 71.3406 169.177 72.8991C170.736 74.4575 172.849 75.333 175.053 75.333Z" fill="white" />
		<path d="M166.743 116.883H175.053V112.728C175.053 111.626 174.616 110.569 173.836 109.79C173.057 109.011 172 108.573 170.898 108.573C169.796 108.573 168.74 109.011 167.96 109.79C167.181 110.569 166.743 111.626 166.743 112.728" fill="white" />
		<path d="M175.053 116.883H166.743V125.193H175.053V116.883Z" fill="white" />
		<path d="M166.743 133.503V141.813H175.053C175.053 139.609 174.178 137.495 172.619 135.937C171.061 134.378 168.947 133.503 166.743 133.503Z" fill="white" />
		<path d="M175.053 150.123V141.813H166.743C166.743 144.017 167.619 146.131 169.177 147.689C170.736 149.248 172.849 150.123 175.053 150.123Z" fill="white" />
		<path d="M166.743 158.433V166.743H175.053C175.053 164.539 174.178 162.425 172.619 160.867C171.061 159.308 168.947 158.433 166.743 158.433Z" fill="white" />
		<path d="M175.053 166.743H166.743V175.053H175.053V166.743Z" fill="white" />
		<path d="M175.053 175.053H166.743V183.363H175.053V175.053Z" fill="white" />
		<path d="M175.053 183.363H166.743V191.673H175.053V183.363Z" fill="white" />
		<path d="M175.053 191.673H166.743V199.983H175.053V191.673Z" fill="white" />
		<path d="M175.053 208.293V199.983H166.743C166.743 202.187 167.619 204.301 169.177 205.859C170.736 207.417 172.849 208.293 175.053 208.293Z" fill="white" />
		<path d="M175.053 216.603H166.743V224.913H175.053V216.603Z" fill="white" />
		<path d="M175.053 224.913H166.743V233.223C168.947 233.223 171.061 232.348 172.619 230.789C174.178 229.231 175.053 227.117 175.053 224.913Z" fill="white" />
		<path d="M175.053 67.0234V75.3334H183.363C183.363 73.1295 182.488 71.0158 180.929 69.4574C179.371 67.899 177.257 67.0234 175.053 67.0234Z" fill="white" />
		<path d="M183.363 75.333H175.053V83.643H183.363V75.333Z" fill="white" />
		<path d="M183.363 83.6426H175.053V91.9526H183.363V83.6426Z" fill="white" />
		<path d="M183.363 91.9531H175.053V96.1081C175.053 97.2101 175.491 98.2669 176.27 99.0462C177.049 99.8254 178.106 100.263 179.208 100.263C180.31 100.263 181.367 99.8254 182.146 99.0462C182.926 98.2669 183.363 97.2101 183.363 96.1081" fill="white" />
		<path d="M183.363 116.883H175.053V125.193H183.363V116.883Z" fill="white" />
		<path d="M183.363 133.503V125.193H175.053C175.053 127.397 175.929 129.511 177.487 131.069C179.046 132.627 181.159 133.503 183.363 133.503Z" fill="white" />
		<path d="M175.053 141.812V150.123H179.208C180.31 150.123 181.367 149.685 182.146 148.906C182.926 148.126 183.363 147.069 183.363 145.968C183.363 144.866 182.926 143.809 182.146 143.029C181.367 142.25 180.31 141.812 179.208 141.812" fill="white" />
		<path d="M183.363 166.743H175.053V175.053H183.363V166.743Z" fill="white" />
		<path d="M183.363 199.983H175.053V208.293H183.363V199.983Z" fill="white" />
		<path d="M183.363 208.293H175.053V216.603H183.363V208.293Z" fill="white" />
		<path d="M183.363 216.603H175.053V224.913H183.363V216.603Z" fill="white" />
		<path d="M183.363 75.333V83.643H187.518C188.62 83.643 189.677 83.2053 190.456 82.426C191.236 81.6468 191.673 80.59 191.673 79.488C191.673 78.386 191.236 77.3292 190.456 76.55C189.677 75.7708 188.62 75.333 187.518 75.333" fill="white" />
		<path d="M183.363 116.883V125.193H191.673C191.673 122.989 190.798 120.875 189.239 119.317C187.681 117.758 185.567 116.883 183.363 116.883Z" fill="white" />
		<path d="M191.673 125.193H183.363V133.503H191.673V125.193Z" fill="white" />
		<path d="M183.363 166.743H191.673V158.433C189.469 158.433 187.356 159.309 185.797 160.867C184.239 162.426 183.363 164.539 183.363 166.743Z" fill="white" />
		<path d="M191.673 166.743H183.363V175.053H191.673V166.743Z" fill="white" />
		<path d="M187.518 191.673C189.813 191.673 191.673 189.813 191.673 187.518C191.673 185.224 189.813 183.363 187.518 183.363C185.224 183.363 183.363 185.224 183.363 187.518C183.363 189.813 185.224 191.673 187.518 191.673Z" fill="white" />
		<path d="M191.673 199.983H183.363V208.293H191.673V199.983Z" fill="white" />
		<path d="M183.363 216.603V224.913H187.518C188.62 224.913 189.677 224.475 190.456 223.696C191.236 222.916 191.673 221.86 191.673 220.758C191.673 219.656 191.236 218.599 190.456 217.82C189.677 217.04 188.62 216.603 187.518 216.603" fill="white" />
		<path d="M199.983 75.333V67.023H195.828C194.726 67.023 193.67 67.4608 192.89 68.24C192.111 69.0192 191.673 70.076 191.673 71.178C191.673 72.28 192.111 73.3368 192.89 74.116C193.67 74.8953 194.726 75.333 195.828 75.333" fill="white" />
		<path d="M191.673 100.263H199.983V91.9527C197.779 91.9527 195.666 92.8282 194.107 94.3866C192.549 95.9451 191.673 98.0587 191.673 100.263Z" fill="white" />
		<path d="M199.983 100.263H191.673V104.418C191.673 105.52 192.111 106.577 192.89 107.356C193.67 108.135 194.726 108.573 195.828 108.573C196.93 108.573 197.987 108.135 198.766 107.356C199.546 106.577 199.983 105.52 199.983 104.418" fill="white" />
		<path d="M191.673 125.193V133.503H195.828C196.93 133.503 197.987 133.066 198.766 132.286C199.546 131.507 199.983 130.45 199.983 129.348C199.983 128.246 199.546 127.19 198.766 126.41C197.987 125.631 196.93 125.193 195.828 125.193" fill="white" />
		<path d="M191.673 158.433H199.983V154.278C199.983 153.176 199.546 152.119 198.766 151.34C197.987 150.56 196.93 150.123 195.828 150.123C194.726 150.123 193.67 150.56 192.89 151.34C192.111 152.119 191.673 153.176 191.673 154.278" fill="white" />
		<path d="M199.983 158.433H191.673V166.743H199.983V158.433Z" fill="white" />
		<path d="M199.983 166.743H191.673V175.053H199.983V166.743Z" fill="white" />
		<path d="M199.983 199.983H191.673V208.293H199.983V199.983Z" fill="white" />
		<path d="M199.983 208.293H191.673V212.448C191.673 213.55 192.111 214.607 192.89 215.386C193.67 216.165 194.726 216.603 195.828 216.603C196.93 216.603 197.987 216.165 198.766 215.386C199.546 214.607 199.983 213.55 199.983 212.448" fill="white" />
		<path d="M199.983 233.223V224.913H195.828C194.726 224.913 193.67 225.35 192.89 226.13C192.111 226.909 191.673 227.966 191.673 229.068C191.673 230.17 192.111 231.226 192.89 232.006C193.67 232.785 194.726 233.223 195.828 233.223" fill="white" />
		<path d="M208.293 67.0234H199.983V75.3334H208.293V67.0234Z" fill="white" />
		<path d="M199.983 91.9531H208.293V83.6431C206.089 83.6431 203.976 84.5186 202.417 86.0771C200.859 87.6355 199.983 89.7492 199.983 91.9531Z" fill="white" />
		<path d="M208.293 91.9531H199.983V100.263H208.293V91.9531Z" fill="white" />
		<path d="M204.138 150.123C206.433 150.123 208.293 148.262 208.293 145.968C208.293 143.673 206.433 141.812 204.138 141.812C201.844 141.812 199.983 143.673 199.983 145.968C199.983 148.262 201.844 150.123 204.138 150.123Z" fill="white" />
		<path d="M199.983 158.433V166.743H208.293C208.293 164.539 207.418 162.425 205.859 160.867C204.301 159.308 202.187 158.433 199.983 158.433Z" fill="white" />
		<path d="M208.293 166.743H199.983V175.053H208.293V166.743Z" fill="white" />
		<path d="M208.293 175.053H199.983V183.363H208.293V175.053Z" fill="white" />
		<path d="M208.293 183.363H199.983V191.673H208.293V183.363Z" fill="white" />
		<path d="M208.293 191.673H199.983V199.983H208.293V191.673Z" fill="white" />
		<path d="M208.293 199.983H199.983V208.293C202.187 208.293 204.301 207.418 205.859 205.859C207.418 204.301 208.293 202.187 208.293 199.983Z" fill="white" />
		<path d="M208.293 224.913H199.983V233.223H208.293V224.913Z" fill="white" />
		<path d="M208.293 233.223H199.983V237.378C199.983 238.48 200.421 239.536 201.2 240.316C201.98 241.095 203.036 241.533 204.138 241.533C205.24 241.533 206.297 241.095 207.076 240.316C207.856 239.536 208.293 238.48 208.293 237.378" fill="white" />
		<path d="M208.293 67.0234V75.3334H212.448C213.55 75.3334 214.607 74.8957 215.386 74.1165C216.166 73.3373 216.603 72.2804 216.603 71.1784C216.603 70.0765 216.166 69.0196 215.386 68.2404C214.607 67.4612 213.55 67.0234 212.448 67.0234" fill="white" />
		<path d="M208.293 83.6426V91.9526H216.603C216.603 89.7486 215.728 87.6349 214.169 86.0765C212.611 84.5181 210.497 83.6426 208.293 83.6426Z" fill="white" />
		<path d="M216.603 91.9531H208.293V100.263H216.603V91.9531Z" fill="white" />
		<path d="M208.293 116.883H216.603V112.728C216.603 111.626 216.166 110.569 215.386 109.79C214.607 109.011 213.55 108.573 212.448 108.573C211.346 108.573 210.29 109.011 209.51 109.79C208.731 110.569 208.293 111.626 208.293 112.728" fill="white" />
		<path d="M216.603 125.193V116.883H208.293C208.293 119.087 209.169 121.201 210.727 122.759C212.286 124.318 214.399 125.193 216.603 125.193Z" fill="white" />
		<path d="M216.603 158.433V150.123H212.448C211.346 150.123 210.29 150.56 209.51 151.34C208.731 152.119 208.293 153.176 208.293 154.278C208.293 155.38 208.731 156.436 209.51 157.216C210.29 157.995 211.346 158.433 212.448 158.433" fill="white" />
		<path d="M216.603 191.673H208.293V199.983H216.603V191.673Z" fill="white" />
		<path d="M208.293 216.603H216.603V208.293C214.399 208.293 212.286 209.168 210.727 210.726C209.169 212.285 208.293 214.399 208.293 216.603Z" fill="white" />
		<path d="M216.603 216.603H208.293V224.913H216.603V216.603Z" fill="white" />
		<path d="M216.603 224.913H208.293V233.223H216.603V224.913Z" fill="white" />
		<path d="M220.758 83.643C223.053 83.643 224.913 81.7828 224.913 79.488C224.913 77.1933 223.053 75.333 220.758 75.333C218.464 75.333 216.603 77.1933 216.603 79.488C216.603 81.7828 218.464 83.643 220.758 83.643Z" fill="white" />
		<path d="M224.913 91.9531H216.603V100.263H224.913V91.9531Z" fill="white" />
		<path d="M224.913 116.883H216.603V125.193H224.913V116.883Z" fill="white" />
		<path d="M224.913 125.193H216.603V129.348C216.603 130.45 217.041 131.507 217.82 132.286C218.6 133.066 219.656 133.503 220.758 133.503C221.86 133.503 222.917 133.066 223.696 132.286C224.476 131.507 224.913 130.45 224.913 129.348" fill="white" />
		<path d="M216.603 150.123H224.913V145.968C224.913 144.866 224.476 143.809 223.696 143.03C222.917 142.251 221.86 141.813 220.758 141.813C219.656 141.813 218.6 142.251 217.82 143.03C217.041 143.809 216.603 144.866 216.603 145.968" fill="white" />
		<path d="M224.913 150.123H216.603V158.433H224.913V150.123Z" fill="white" />
		<path d="M216.603 175.053H224.913V166.743C222.709 166.743 220.596 167.618 219.037 169.177C217.479 170.735 216.603 172.849 216.603 175.053Z" fill="white" />
		<path d="M224.913 183.363V175.053H216.603C216.603 177.257 217.479 179.371 219.037 180.929C220.596 182.488 222.709 183.363 224.913 183.363Z" fill="white" />
		<path d="M216.603 191.673V199.983H224.913C224.913 197.779 224.038 195.665 222.479 194.107C220.921 192.548 218.807 191.673 216.603 191.673Z" fill="white" />
		<path d="M224.913 199.983H216.603V208.293H224.913V199.983Z" fill="white" />
		<path d="M224.913 208.293H216.603V216.603H224.913V208.293Z" fill="white" />
		<path d="M216.603 224.913V233.223H224.913C224.913 231.019 224.038 228.905 222.479 227.347C220.921 225.789 218.807 224.913 216.603 224.913Z" fill="white" />
		<path d="M224.913 241.533V233.223H216.603C216.603 235.427 217.479 237.541 219.037 239.099C220.596 240.658 222.709 241.533 224.913 241.533Z" fill="white" />
		<path d="M229.068 75.3334C231.363 75.3334 233.223 73.4732 233.223 71.1784C233.223 68.8837 231.363 67.0234 229.068 67.0234C226.774 67.0234 224.913 68.8837 224.913 71.1784C224.913 73.4732 226.774 75.3334 229.068 75.3334Z" fill="white" />
		<path d="M224.913 91.9531H233.223V83.6431C231.019 83.6431 228.906 84.5186 227.347 86.0771C225.789 87.6355 224.913 89.7492 224.913 91.9531Z" fill="white" />
		<path d="M233.223 91.9531H224.913V100.263H233.223V91.9531Z" fill="white" />
		<path d="M233.223 100.263H224.913V108.573H233.223V100.263Z" fill="white" />
		<path d="M233.223 108.573H224.913V116.883H233.223V108.573Z" fill="white" />
		<path d="M233.223 116.883H224.913V125.193C227.117 125.193 229.231 124.317 230.789 122.759C232.348 121.2 233.223 119.087 233.223 116.883Z" fill="white" />
		<path d="M229.068 141.813C231.363 141.813 233.223 139.953 233.223 137.658C233.223 135.363 231.363 133.503 229.068 133.503C226.774 133.503 224.913 135.363 224.913 137.658C224.913 139.953 226.774 141.813 229.068 141.813Z" fill="white" />
		<path d="M233.223 150.123H224.913V158.433H233.223V150.123Z" fill="white" />
		<path d="M233.223 158.433H224.913V166.743H233.223V158.433Z" fill="white" />
		<path d="M233.223 166.743H224.913V175.053H233.223V166.743Z" fill="white" />
		<path d="M233.223 175.053H224.913V183.363H233.223V175.053Z" fill="white" />
		<path d="M233.223 183.363H224.913V187.518C224.913 188.62 225.351 189.677 226.13 190.456C226.91 191.236 227.966 191.673 229.068 191.673C230.17 191.673 231.227 191.236 232.006 190.456C232.786 189.677 233.223 188.62 233.223 187.518" fill="white" />
		<path d="M233.223 199.983H224.913V208.293H233.223V199.983Z" fill="white" />
		<path d="M233.223 208.293H224.913V216.603H233.223V208.293Z" fill="white" />
		<path d="M233.223 224.913V216.603H224.913C224.913 218.807 225.789 220.921 227.347 222.479C228.906 224.038 231.019 224.913 233.223 224.913Z" fill="white" />
		<path d="M224.913 233.223V241.533H229.068C230.17 241.533 231.227 241.095 232.006 240.316C232.786 239.536 233.223 238.48 233.223 237.378C233.223 236.276 232.786 235.219 232.006 234.44C231.227 233.66 230.17 233.223 229.068 233.223" fill="white" />
		<path d="M233.223 83.6426V91.9526H241.533C241.533 89.7486 240.658 87.6349 239.099 86.0765C237.541 84.5181 235.427 83.6426 233.223 83.6426Z" fill="white" />
		<path d="M241.533 91.9531H233.223V100.263C235.427 100.263 237.541 99.3876 239.099 97.8292C240.658 96.2707 241.533 94.1571 241.533 91.9531Z" fill="white" />
		<path d="M237.378 133.503C239.673 133.503 241.533 131.643 241.533 129.348C241.533 127.054 239.673 125.193 237.378 125.193C235.084 125.193 233.223 127.054 233.223 129.348C233.223 131.643 235.084 133.503 237.378 133.503Z" fill="white" />
		<path d="M233.223 150.123V158.433H241.533C241.533 156.229 240.658 154.115 239.099 152.557C237.541 150.999 235.427 150.123 233.223 150.123Z" fill="white" />
		<path d="M241.533 158.433H233.223V166.743H241.533V158.433Z" fill="white" />
		<path d="M241.533 166.743H233.223V175.053H241.533V166.743Z" fill="white" />
		<path d="M241.533 175.053H233.223V183.363C235.427 183.363 237.541 182.487 239.099 180.929C240.658 179.37 241.533 177.257 241.533 175.053Z" fill="white" />
		<path d="M233.223 199.983H241.533V195.828C241.533 194.726 241.096 193.67 240.316 192.89C239.537 192.111 238.48 191.673 237.378 191.673C236.276 191.673 235.22 192.111 234.44 192.89C233.661 193.67 233.223 194.726 233.223 195.828" fill="white" />
		<path d="M241.533 199.983H233.223V208.293C235.427 208.293 237.541 207.418 239.099 205.859C240.658 204.301 241.533 202.187 241.533 199.983Z" fill="white" />
		<path d="M233.223 216.603V224.913H237.378C238.48 224.913 239.537 224.475 240.316 223.696C241.096 222.916 241.533 221.86 241.533 220.758C241.533 219.656 241.096 218.599 240.316 217.82C239.537 217.04 238.48 216.603 237.378 216.603" fill="white" />
	</mask>

	<g mask="url(#mask0_1812_66)">
		<path d="M260 -17H-17V260H260V-17Z" fill="#FFF9F9" />
	</g>
</svg>