<svg width="29" height="27" viewBox="0 0 29 27" fill="none" xmlns="http://www.w3.org/2000/svg">
	<path d="M9.52174 21.3706L14.5 18.4508L19.4783 21.4105L18.1646 15.8808L22.5576 12.1817L16.7891 11.6818L14.5 6.45237L12.2109 11.6515L6.4424 12.1418L10.8354 15.8712L9.52174 21.3706ZM14.5 22.7101L7.66667 26.7218C7.32047 26.9334 6.96047 27.0243 6.58667 26.9945C6.21314 26.9647 5.88716 26.844 5.60872 26.6324C5.33001 26.4205 5.11415 26.1542 4.96113 25.8334C4.80811 25.5124 4.77915 25.1567 4.87424 24.7662L6.6875 17.1916L0.632921 12.0923C0.320601 11.821 0.125367 11.5116 0.0472192 11.164C-0.0309291 10.8166 -0.0120752 10.4774 0.103781 10.1463C0.219637 9.81543 0.40804 9.54088 0.66899 9.32262C0.930213 9.10463 1.27491 8.96901 1.70309 8.91578L9.68405 8.23705L12.7777 1.09196C12.934 0.72172 13.1735 0.447165 13.4962 0.268299C13.8192 0.0894321 14.1538 0 14.5 0C14.8462 0 15.1808 0.0894321 15.5038 0.268299C15.8265 0.447165 16.066 0.72172 16.2223 1.09196L19.316 8.23705L27.2969 8.91578C27.7251 8.96901 28.0698 9.10463 28.331 9.32262C28.592 9.54088 28.7804 9.81543 28.8962 10.1463C29.0121 10.4774 29.0309 10.8166 28.9528 11.164C28.8746 11.5116 28.6794 11.821 28.3671 12.0923L22.3125 17.1916L24.1258 24.7662C24.2208 25.1567 24.1919 25.5124 24.0389 25.8334C23.8858 26.1542 23.67 26.4205 23.3913 26.6324C23.1128 26.844 22.7869 26.9647 22.4133 26.9945C22.0395 27.0243 21.6795 26.9334 21.3333 26.7218L14.5 22.7101Z" />
</svg>